<svg width="112" height="168" viewBox="0 0 112 168" fill="none" xmlns="http://www.w3.org/2000/svg">
<path d="M63.5963 40.642C76.5232 34.2663 89.3916 29.4407 102.085 28.4755C102.172 26.2528 102.289 24.0593 102.377 21.8659C89.6548 23.2112 76.8156 27.5104 63.918 33.4474C63.801 35.8456 63.7132 38.2438 63.5963 40.642Z" fill="white" fill-opacity="0.25"/>
<path d="M102.234 33.4765C90.3603 34.1492 78.3108 38.5069 66.2321 44.3854C66.1151 46.7544 66.0273 49.1526 65.9103 51.5508C78.0184 45.3798 90.0679 40.6711 101.942 40.2617C102.03 37.9805 102.147 35.7285 102.234 33.4765Z" fill="white" fill-opacity="0.25"/>
<path d="M59.9398 66.876C75.0018 58.5115 89.9759 51.2877 104.628 52.282L104.95 45.2921C90.2976 44.6487 75.3234 51.4046 60.2908 59.5644C60.1738 61.9918 60.0861 64.4485 59.9691 66.876H59.9398Z" fill="white" fill-opacity="0.25"/>
<path d="M105.943 69.9177C105.826 72.3159 105.738 74.7434 105.621 77.1708C73.6254 72.4914 39.5826 114.109 7.58698 109.43L8.96156 102.41C40.6354 106.096 74.298 64.9751 105.943 69.9177Z" fill="white" fill-opacity="0.25"/>
<path d="M112 84.014C111.883 86.4707 111.795 88.8982 111.678 91.3549C93.6333 84.3942 74.7401 95.9173 55.9054 105.978C37.1584 116.302 18.4992 125.193 0.424927 120.689L1.79951 113.699C37.5971 124.433 76.2609 71.4088 112 84.014Z" fill="white" fill-opacity="0.25"/>
<path d="M108.548 95.9765C108.431 98.4332 108.314 100.919 108.226 103.376C90.8831 98.9889 72.8673 110.015 54.9392 118.964C37.0404 128.323 19.2586 135.635 1.88626 133.587L3.26085 126.568C20.253 129.142 37.7424 121.158 55.261 111.623C73.2182 102.206 91.234 91.1801 108.548 95.9473V95.9765Z" fill="white" fill-opacity="0.25"/>
<path d="M44.2631 152.949L43.9706 159.792C33.6759 162.98 23.4396 165.057 13.2034 167.25L14.461 160.874C24.3755 159.032 34.29 156.546 44.2923 152.949H44.2631Z" fill="white" fill-opacity="0.25"/>
<path d="M103.929 115.337C87.3465 113.875 70.2374 124.199 53.2452 131.891C35.8436 140.285 18.5882 145.871 1.59604 145.783L2.97062 138.705C19.5826 139.729 36.5163 133.295 53.5669 124.579C70.5883 116.303 87.6975 105.774 104.28 107.763L103.929 115.337Z" fill="white" fill-opacity="0.25"/>
<path d="M80.825 132.768C70.1501 136.57 59.4166 141.952 48.7124 146.105C35.1714 151.603 21.718 155.142 8.35239 157.043L9.66849 150.375C22.6831 149 35.8148 144.906 49.0342 138.998C59.7383 134.377 70.501 128.586 81.1759 124.726L80.825 132.798V132.768Z" fill="white" fill-opacity="0.25"/>
<path d="M97.6978 11.2493L97.4054 17.5665C87.7248 19.175 77.9857 22.2751 68.1882 26.3112L68.5099 19.3505C78.2782 15.724 88.0173 13.004 97.6978 11.2493Z" fill="white" fill-opacity="0.25"/>
<path d="M81.5565 4.17172C86.1774 2.97262 90.8276 1.8905 95.4485 0.749893C95.4485 2.7679 95.4193 4.84439 95.39 6.92089C90.6814 7.94451 85.9727 9.08512 81.264 10.4305L81.5565 4.17172Z" fill="white" fill-opacity="0.25"/>
<path d="M102.436 64.2147C83.6889 63.2789 64.2692 77.0832 45.0251 87.1732L45.3468 79.7738C64.591 69.6838 83.9813 56.3182 102.758 57.1079C102.641 59.4476 102.553 61.8165 102.436 64.2147Z" fill="white" fill-opacity="0.25"/>
</svg>
